<?xml version="1.0" standalone="no"?><!DOCTYPE svg PUBLIC "-//W3C//DTD SVG 1.1//EN" "http://www.w3.org/Graphics/SVG/1.1/DTD/svg11.dtd"><svg t="1532592714148" class="icon" style="" viewBox="0 0 1024 1024" version="1.1" xmlns="http://www.w3.org/2000/svg" p-id="6537" xmlns:xlink="http://www.w3.org/1999/xlink" width="200" height="200"><defs><style type="text/css"></style></defs><path d="M832 192h-64c0-35.2-28.8-64-64-64h-64V64c0-35.2-28.8-64-64-64H448c-35.2 0-64 28.8-64 64v64h-64c-35.2 0-64 28.8-64 64h-64c-35.2 0-64 28.8-64 64v704c0 35.2 28.8 64 64 64h640c35.2 0 64-28.8 64-64V256c0-35.2-28.8-64-64-64z m-512 0h128V64h128v128h128v128H320V192z m512 768H192V256h64v64c0 35.2 28.8 64 64 64h384c35.2 0 64-28.8 64-64v-64h64v704z" p-id="6538"></path><path d="M320 512h384v64H320zM320 640h384v64H320zM320 768h384v64H320z" p-id="6539"></path></svg>
