<?xml version="1.0" standalone="no"?><!DOCTYPE svg PUBLIC "-//W3C//DTD SVG 1.1//EN" "http://www.w3.org/Graphics/SVG/1.1/DTD/svg11.dtd"><svg t="1532592738577" class="icon" style="" viewBox="0 0 1025 1024" version="1.1" xmlns="http://www.w3.org/2000/svg" p-id="6781" xmlns:xlink="http://www.w3.org/1999/xlink" width="200.1953125" height="200"><defs><style type="text/css"></style></defs><path d="M512.016589 999.030708" p-id="6782"></path><path d="M674.828059 418.923128c0-89.955551-72.931208-162.886759-162.881655-162.886759-89.955551 0-162.881655 72.931208-162.881655 162.886759 0 89.98873 72.926104 162.880379 162.881655 162.880379C601.896851 581.814992 674.828059 508.911857 674.828059 418.923128L674.828059 418.923128 674.828059 418.923128z" p-id="6783"></path><path d="M512.016589 0C229.233333 0 0 229.233333 0 512.017865 0 794.776876 229.233333 1024 512.016589 1024c282.774324 0 512.00638-229.223124 512.00638-511.982135C1024.024246 229.233333 794.790913 0 512.016589 0zM773.661382 784.536238c-0.542339 8.091699-7.236718 14.447913-15.463682 14.447913-8.588099 0-16.215301-6.913866-16.215301-15.503241-29.909044-98.721027-121.542656-170.637742-230.035995-170.637742-108.497167 0-200.586344 75.344298-230.49794 174.081914l0-0.003828c-1.962629 8.006201-10.537967 12.062897-15.763564 12.062897-8.579166 0-15.512174-6.913866-15.512174-15.503241 0.413454-1.674233 0.512989-3.310183 0.986419-5.013765 0.154407-0.419834 0.219488-0.877951 0.384104-1.296509 25.338082-86.698964 92.531981-155.5135 178.428283-182.700639-66.072214-30.912052-111.936235-97.790756-111.936235-175.546868 0-107.067944 86.808708-193.906003 193.911107-193.906003 107.066668 0 193.906003 86.832954 193.906003 193.906003 0 77.756112-45.909961 144.636092-111.961757 175.531555 85.901407 27.188415 153.086373 96.016988 178.423179 182.700639 0.188862 0.418558 1.276092 5.908306 1.401149 6.325588C773.934466 784.25805 773.811961 784.416285 773.661382 784.536238z" p-id="6784"></path><path d="M773.531221 785.674512l0.091879-1.102543C773.462312 784.697025 773.304076 784.831015 773.531221 785.674512z" p-id="6785"></path></svg>
